<mxfile host="app.diagrams.net" modified="2022-04-25T07:20:11.832Z" agent="5.0 (Windows NT 10.0; Win64; x64) AppleWebKit/537.36 (KHTML, like Gecko) Chrome/100.0.4896.127 Safari/537.36" etag="dO2LF8ivgj1WqFmLeS4p" version="17.4.6" type="github">
  <diagram id="fePD7rwdEORKMG6Ea_yF" name="Page-1">
    <mxGraphModel dx="1422" dy="754" grid="1" gridSize="10" guides="1" tooltips="1" connect="1" arrows="1" fold="1" page="1" pageScale="1" pageWidth="827" pageHeight="1169" math="0" shadow="0">
      <root>
        <mxCell id="0" />
        <mxCell id="1" parent="0" />
        <mxCell id="7xqQ816b8DwYWRjrGg5H-3" value="" style="edgeStyle=orthogonalEdgeStyle;rounded=0;orthogonalLoop=1;jettySize=auto;html=1;" edge="1" parent="1" source="7xqQ816b8DwYWRjrGg5H-1" target="7xqQ816b8DwYWRjrGg5H-2">
          <mxGeometry relative="1" as="geometry">
            <Array as="points">
              <mxPoint x="360" y="220" />
              <mxPoint x="260" y="220" />
            </Array>
          </mxGeometry>
        </mxCell>
        <mxCell id="7xqQ816b8DwYWRjrGg5H-7" value="" style="edgeStyle=orthogonalEdgeStyle;rounded=0;orthogonalLoop=1;jettySize=auto;html=1;" edge="1" parent="1" source="7xqQ816b8DwYWRjrGg5H-1" target="7xqQ816b8DwYWRjrGg5H-6">
          <mxGeometry relative="1" as="geometry">
            <Array as="points">
              <mxPoint x="360" y="220" />
              <mxPoint x="460" y="220" />
            </Array>
          </mxGeometry>
        </mxCell>
        <mxCell id="7xqQ816b8DwYWRjrGg5H-1" value="传感器处理模块处理后数据" style="rounded=0;whiteSpace=wrap;html=1;" vertex="1" parent="1">
          <mxGeometry x="275" y="160" width="170" height="30" as="geometry" />
        </mxCell>
        <mxCell id="7xqQ816b8DwYWRjrGg5H-13" style="edgeStyle=orthogonalEdgeStyle;rounded=0;orthogonalLoop=1;jettySize=auto;html=1;exitX=0.5;exitY=1;exitDx=0;exitDy=0;entryX=0.5;entryY=0;entryDx=0;entryDy=0;" edge="1" parent="1" source="7xqQ816b8DwYWRjrGg5H-2" target="7xqQ816b8DwYWRjrGg5H-14">
          <mxGeometry relative="1" as="geometry">
            <mxPoint x="390" y="440" as="targetPoint" />
            <Array as="points">
              <mxPoint x="260" y="410" />
              <mxPoint x="360" y="410" />
            </Array>
          </mxGeometry>
        </mxCell>
        <mxCell id="7xqQ816b8DwYWRjrGg5H-2" value="语义分割滤除无关元素" style="whiteSpace=wrap;html=1;rounded=0;" vertex="1" parent="1">
          <mxGeometry x="190" y="290" width="140" height="30" as="geometry" />
        </mxCell>
        <mxCell id="7xqQ816b8DwYWRjrGg5H-11" value="" style="edgeStyle=orthogonalEdgeStyle;rounded=0;orthogonalLoop=1;jettySize=auto;html=1;" edge="1" parent="1" source="7xqQ816b8DwYWRjrGg5H-6" target="7xqQ816b8DwYWRjrGg5H-10">
          <mxGeometry relative="1" as="geometry" />
        </mxCell>
        <mxCell id="7xqQ816b8DwYWRjrGg5H-6" value="初始化地面mesh" style="whiteSpace=wrap;html=1;rounded=0;" vertex="1" parent="1">
          <mxGeometry x="380" y="250" width="160" height="30" as="geometry" />
        </mxCell>
        <mxCell id="7xqQ816b8DwYWRjrGg5H-15" style="edgeStyle=orthogonalEdgeStyle;rounded=0;orthogonalLoop=1;jettySize=auto;html=1;exitX=0.5;exitY=1;exitDx=0;exitDy=0;entryX=0.5;entryY=0;entryDx=0;entryDy=0;" edge="1" parent="1" source="7xqQ816b8DwYWRjrGg5H-10" target="7xqQ816b8DwYWRjrGg5H-14">
          <mxGeometry relative="1" as="geometry" />
        </mxCell>
        <mxCell id="7xqQ816b8DwYWRjrGg5H-10" value="mesh地面元素可学习参数注册" style="whiteSpace=wrap;html=1;rounded=0;" vertex="1" parent="1">
          <mxGeometry x="400" y="320" width="120" height="60" as="geometry" />
        </mxCell>
        <mxCell id="7xqQ816b8DwYWRjrGg5H-22" value="" style="edgeStyle=orthogonalEdgeStyle;rounded=0;orthogonalLoop=1;jettySize=auto;html=1;" edge="1" parent="1" source="7xqQ816b8DwYWRjrGg5H-14" target="7xqQ816b8DwYWRjrGg5H-21">
          <mxGeometry relative="1" as="geometry" />
        </mxCell>
        <mxCell id="7xqQ816b8DwYWRjrGg5H-14" value="投影损失计算" style="rounded=0;whiteSpace=wrap;html=1;" vertex="1" parent="1">
          <mxGeometry x="300" y="440" width="120" height="40" as="geometry" />
        </mxCell>
        <mxCell id="7xqQ816b8DwYWRjrGg5H-17" value="否" style="text;html=1;align=center;verticalAlign=middle;resizable=0;points=[];autosize=1;strokeColor=none;fillColor=none;" vertex="1" parent="1">
          <mxGeometry x="445" y="490" width="30" height="20" as="geometry" />
        </mxCell>
        <mxCell id="7xqQ816b8DwYWRjrGg5H-23" style="edgeStyle=orthogonalEdgeStyle;rounded=0;orthogonalLoop=1;jettySize=auto;html=1;exitX=1;exitY=0.5;exitDx=0;exitDy=0;entryX=1;entryY=0.5;entryDx=0;entryDy=0;" edge="1" parent="1" source="7xqQ816b8DwYWRjrGg5H-21" target="7xqQ816b8DwYWRjrGg5H-14">
          <mxGeometry relative="1" as="geometry">
            <Array as="points">
              <mxPoint x="450" y="535" />
              <mxPoint x="450" y="460" />
            </Array>
          </mxGeometry>
        </mxCell>
        <mxCell id="7xqQ816b8DwYWRjrGg5H-26" value="" style="edgeStyle=orthogonalEdgeStyle;rounded=0;orthogonalLoop=1;jettySize=auto;html=1;" edge="1" parent="1" source="7xqQ816b8DwYWRjrGg5H-21" target="7xqQ816b8DwYWRjrGg5H-25">
          <mxGeometry relative="1" as="geometry" />
        </mxCell>
        <mxCell id="7xqQ816b8DwYWRjrGg5H-21" value="损失是否收敛" style="rhombus;whiteSpace=wrap;html=1;rounded=0;" vertex="1" parent="1">
          <mxGeometry x="310" y="510" width="100" height="50" as="geometry" />
        </mxCell>
        <mxCell id="7xqQ816b8DwYWRjrGg5H-25" value="输出地面mesh" style="whiteSpace=wrap;html=1;rounded=0;" vertex="1" parent="1">
          <mxGeometry x="300" y="600" width="120" height="30" as="geometry" />
        </mxCell>
        <mxCell id="7xqQ816b8DwYWRjrGg5H-27" value="是" style="text;html=1;align=center;verticalAlign=middle;resizable=0;points=[];autosize=1;strokeColor=none;fillColor=none;" vertex="1" parent="1">
          <mxGeometry x="360" y="565" width="30" height="20" as="geometry" />
        </mxCell>
        <mxCell id="7xqQ816b8DwYWRjrGg5H-28" value="" style="endArrow=none;html=1;rounded=0;fillColor=#dae8fc;strokeColor=#6c8ebf;" edge="1" parent="1">
          <mxGeometry width="50" height="50" relative="1" as="geometry">
            <mxPoint x="240" y="170" as="sourcePoint" />
            <mxPoint x="275" y="160" as="targetPoint" />
          </mxGeometry>
        </mxCell>
        <mxCell id="7xqQ816b8DwYWRjrGg5H-30" value="" style="endArrow=none;html=1;rounded=0;fillColor=#dae8fc;strokeColor=#6c8ebf;" edge="1" parent="1">
          <mxGeometry width="50" height="50" relative="1" as="geometry">
            <mxPoint x="155" y="300" as="sourcePoint" />
            <mxPoint x="190" y="290" as="targetPoint" />
          </mxGeometry>
        </mxCell>
        <mxCell id="7xqQ816b8DwYWRjrGg5H-31" value="" style="endArrow=none;html=1;rounded=0;fillColor=#dae8fc;strokeColor=#6c8ebf;" edge="1" parent="1">
          <mxGeometry width="50" height="50" relative="1" as="geometry">
            <mxPoint x="265" y="450" as="sourcePoint" />
            <mxPoint x="300" y="440" as="targetPoint" />
          </mxGeometry>
        </mxCell>
        <mxCell id="7xqQ816b8DwYWRjrGg5H-32" value="" style="endArrow=none;html=1;rounded=0;fillColor=#dae8fc;strokeColor=#6c8ebf;" edge="1" parent="1">
          <mxGeometry width="50" height="50" relative="1" as="geometry">
            <mxPoint x="540" y="250" as="sourcePoint" />
            <mxPoint x="575" y="260" as="targetPoint" />
          </mxGeometry>
        </mxCell>
        <mxCell id="7xqQ816b8DwYWRjrGg5H-33" value="" style="endArrow=none;html=1;rounded=0;fillColor=#dae8fc;strokeColor=#6c8ebf;" edge="1" parent="1">
          <mxGeometry width="50" height="50" relative="1" as="geometry">
            <mxPoint x="520" y="320" as="sourcePoint" />
            <mxPoint x="555" y="330" as="targetPoint" />
          </mxGeometry>
        </mxCell>
        <mxCell id="7xqQ816b8DwYWRjrGg5H-35" value="" style="endArrow=none;html=1;rounded=0;fillColor=#dae8fc;strokeColor=#6c8ebf;" edge="1" parent="1">
          <mxGeometry width="50" height="50" relative="1" as="geometry">
            <mxPoint x="265" y="610" as="sourcePoint" />
            <mxPoint x="300" y="600" as="targetPoint" />
          </mxGeometry>
        </mxCell>
        <mxCell id="7xqQ816b8DwYWRjrGg5H-36" value="&lt;font color=&quot;#66b2ff&quot;&gt;301&lt;/font&gt;" style="text;html=1;align=center;verticalAlign=middle;resizable=0;points=[];autosize=1;strokeColor=none;fillColor=none;" vertex="1" parent="1">
          <mxGeometry x="210" y="170" width="40" height="20" as="geometry" />
        </mxCell>
        <mxCell id="7xqQ816b8DwYWRjrGg5H-37" value="&lt;font color=&quot;#66b2ff&quot;&gt;302&lt;/font&gt;" style="text;html=1;align=center;verticalAlign=middle;resizable=0;points=[];autosize=1;strokeColor=none;fillColor=none;" vertex="1" parent="1">
          <mxGeometry x="120" y="300" width="40" height="20" as="geometry" />
        </mxCell>
        <mxCell id="7xqQ816b8DwYWRjrGg5H-38" value="&lt;font color=&quot;#66b2ff&quot;&gt;303&lt;/font&gt;" style="text;html=1;align=center;verticalAlign=middle;resizable=0;points=[];autosize=1;strokeColor=none;fillColor=none;" vertex="1" parent="1">
          <mxGeometry x="560" y="260" width="40" height="20" as="geometry" />
        </mxCell>
        <mxCell id="7xqQ816b8DwYWRjrGg5H-39" value="&lt;font color=&quot;#66b2ff&quot;&gt;304&lt;/font&gt;" style="text;html=1;align=center;verticalAlign=middle;resizable=0;points=[];autosize=1;strokeColor=none;fillColor=none;" vertex="1" parent="1">
          <mxGeometry x="550" y="330" width="40" height="20" as="geometry" />
        </mxCell>
        <mxCell id="7xqQ816b8DwYWRjrGg5H-40" value="&lt;font color=&quot;#66b2ff&quot;&gt;305&lt;/font&gt;" style="text;html=1;align=center;verticalAlign=middle;resizable=0;points=[];autosize=1;strokeColor=none;fillColor=none;" vertex="1" parent="1">
          <mxGeometry x="230" y="450" width="40" height="20" as="geometry" />
        </mxCell>
        <mxCell id="7xqQ816b8DwYWRjrGg5H-41" value="&lt;font color=&quot;#66b2ff&quot;&gt;306&lt;/font&gt;" style="text;html=1;align=center;verticalAlign=middle;resizable=0;points=[];autosize=1;strokeColor=none;fillColor=none;" vertex="1" parent="1">
          <mxGeometry x="230" y="610" width="40" height="20" as="geometry" />
        </mxCell>
      </root>
    </mxGraphModel>
  </diagram>
</mxfile>
